<svg xmlns="http://www.w3.org/2000/svg" viewBox="0 0 287.703 147">
    <defs>
        <style>
            .cls-1{fill:url(#linear-gradient)}.cls-2{clip-path:url(#clip-path)}.cls-3{fill:#3dc4ab}.cls-4{fill:#e8f3fd}.cls-5{fill:#abadae}.cls-6{fill:#bfbfbf}.cls-7{fill:#aeaeae}.cls-8{fill:#4d5053}.cls-9{fill:#8bbdf0}.cls-10{fill:#fff}.cls-11{fill:#ea4873}.cls-12{fill:#c5c6c7}.cls-13{fill:#699fd5}.cls-14{fill:#3d4144}.cls-15{fill:#d6d6d6}.cls-16{fill:#9fa1a2}.cls-17{fill:#e9eaea}.cls-18{fill:#cdcdcd}.cls-19{fill:#fdc997}.cls-20{fill:#ebb77a}.cls-21{fill:#3c3c3c}.cls-22{fill:#e94c40}.cls-23{fill:#818385}
        </style>
        <linearGradient id="linear-gradient" x1=".962" x2="0" y1="1" gradientUnits="objectBoundingBox">
            <stop offset="0" stop-color="#699fd5"/>
            <stop offset="1" stop-color="#f05b89"/>
        </linearGradient>
        <clipPath id="clip-path">
            <path id="Tracé_1265" d="M9.606 0h259.372S287.7 35.772 287.7 72.522 268.978 147 268.978 147H6.986C3.128 147 0 143.418 0 139V11C0 4.925 4.3 0 9.606 0z" class="cls-1" data-name="Tracé 1265" transform="translate(25 89)"/>
        </clipPath>
    </defs>
    <g id="Symbole_8_1" data-name="Symbole 8 – 1" transform="translate(-25 -89)">
        <g id="Groupe_de_masques_1" class="cls-2" data-name="Groupe de masques 1">
            <g id="Groupe_132" data-name="Groupe 132" transform="translate(45.952 80.976)">
                <g id="Groupe_111" data-name="Groupe 111" transform="translate(6.328 28.727)">
                    <g id="Groupe_106" data-name="Groupe 106" transform="translate(20.794 .123)">
                        <path id="Tracé_1266" d="M77.47 98.142H23.823a1.557 1.557 0 0 1-1.723-1.354V25.053a1.557 1.557 0 0 1 1.723-1.353H77.47a1.557 1.557 0 0 1 1.723 1.353v71.735a1.557 1.557 0 0 1-1.723 1.354z" class="cls-3" data-name="Tracé 1266" transform="translate(-22.1 -23.7)"/>
                        <path id="Rectangle_24" d="M0 0h47.741v58.077H0z" class="cls-4" data-name="Rectangle 24" transform="translate(4.676 6.275)"/>
                        <path id="Tracé_1267" d="M48.184 26.2a.492.492 0 1 1-.492-.492c.246-.125.492.121.492.492z" class="cls-5" data-name="Tracé 1267" transform="translate(-16.316 -23.245)"/>
                        <path id="Tracé_1268" d="M47.367 26.2c0 .246-.246.492-.738.492h-5.291c-.369 0-.738-.246-.738-.492s.246-.492.738-.492h5.291a.542.542 0 0 1 .738.492z" class="cls-5" data-name="Tracé 1268" transform="translate(-17.837 -23.245)"/>
                        <path id="Tracé_1269" d="M47.1 79.9a1.6 1.6 0 1 1-1.6-1.6 1.551 1.551 0 0 1 1.6 1.6z" class="cls-6" data-name="Tracé 1269" transform="translate(-17.076 -11.118)"/>
                    </g>
                    <g id="Groupe_110" data-name="Groupe 110" transform="translate(0 10.332)">
                        <g id="Groupe_107" data-name="Groupe 107" transform="translate(29.514 2.852)">
                            <path id="Tracé_1270" d="M45.814 83.145C30.311 81.3 28.588 46.6 29.326 39.341a5.047 5.047 0 0 1 2.707-3.941c4.676-2.461 13.781 0 14.15.123l-.615 1.6c-2.338-.615-9.105-1.969-12.427-.246a3.3 3.3 0 0 0-1.846 2.707c-.861 8.121 1.6 40.482 14.642 41.958z" class="cls-7" data-name="Tracé 1270" transform="translate(-29.186 -34.315)"/>
                        </g>
                        <path id="Tracé_1271" d="M46.26 36.684s.984-3.076-2.461-2.338c-2.83.492-4.06-.246-4.06-.246l-.369 1.107-.37 1.231a6.209 6.209 0 0 1 3.691 1.353 2.1 2.1 0 0 0 3.569-1.107z" class="cls-8" data-name="Tracé 1271" transform="translate(2.589 -31.513)"/>
                        <g id="Groupe_108" data-name="Groupe 108" transform="translate(52.171 2.852)">
                            <path id="Tracé_1272" d="M47.969 83.145C63.473 81.3 65.2 46.6 64.457 39.341A5.047 5.047 0 0 0 61.75 35.4c-4.676-2.461-13.781 0-14.15.123l.615 1.6c2.338-.615 9.105-1.969 12.427-.246a3.3 3.3 0 0 1 1.846 2.707c.861 8.121-1.6 40.482-14.642 41.958z" class="cls-7" data-name="Tracé 1272" transform="translate(-47.6 -34.315)"/>
                        </g>
                        <path id="Tracé_1273" d="M45.724 36.684s-.984-3.076 2.461-2.338c2.83.492 4.06-.246 4.06-.246l.369 1.107.369 1.107a6.209 6.209 0 0 0-3.691 1.353c-2.706 2.093-3.568-.983-3.568-.983z" class="cls-8" data-name="Tracé 1273" transform="translate(4.109 -31.513)"/>
                        <g id="Groupe_109" data-name="Groupe 109" transform="translate(6.398 9.601)">
                            <path id="Tracé_1274" d="M51.989 81.389v5.783c0 9.351-8.613 16.857-19.072 16.857h-.369c-10.582 0-19.072-7.629-19.072-16.857V39.8H10.4v47.372c0 10.951 9.967 19.81 22.148 19.81h.369c12.3 0 22.148-8.859 22.148-19.81v-5.783h-3.076z" class="cls-9" data-name="Tracé 1274" transform="translate(-10.4 -39.8)"/>
                        </g>
                        <path id="Tracé_1275" d="M65.606 61.9H61.3c-2.83 6.89-5.291 10.7-10.951 11.689h-4.184c-5.414-1.23-7.752-5.045-10.459-11.689H31.4c3.076 7.875 7.752 14.027 14.765 15.257v4.922c0 3.568-1.723 6.767-3.322 9.721l4.06 1.723a21.007 21.007 0 0 0 3.568-11.443v-4.922c7.137-.985 11.936-7.258 15.135-15.258z" class="cls-8" data-name="Tracé 1275" transform="translate(.838 -25.106)"/>
                        <path id="Tracé_1276" d="M20.581 39.26a7.437 7.437 0 0 1-7.629 7.26A7.469 7.469 0 0 1 5.2 39.26 7.469 7.469 0 0 1 12.952 32a7.359 7.359 0 0 1 7.629 7.26z" class="cls-8" data-name="Tracé 1276" transform="translate(-5.2 -31.997)"/>
                        <path id="Tracé_1277" d="M16.613 38.662a4.234 4.234 0 0 1-4.307 4.06 4.067 4.067 0 1 1 0-8.121 4.077 4.077 0 0 1 4.307 4.061z" class="cls-4" data-name="Tracé 1277" transform="translate(-4.555 -31.399)"/>
                    </g>
                    <path id="Tracé_1278" d="M77.47 23.6H23.823a1.557 1.557 0 0 0-1.723 1.353v71.735a1.557 1.557 0 0 0 1.723 1.353H77.47a1.557 1.557 0 0 0 1.723-1.353V25.077A1.565 1.565 0 0 0 77.47 23.6zm-23.994 2.461a.492.492 0 1 1-.492.492c-.123-.246.123-.492.492-.492zm-7.875 0h5.291c.369 0 .738.246.738.492s-.246.492-.738.492H45.6c-.369 0-.738-.246-.738-.492s.37-.492.738-.492zM50.523 94.1a1.6 1.6 0 1 1 1.6-1.6 1.551 1.551 0 0 1-1.6 1.6zm23.994-6.029H26.776V30h47.741z" class="cls-10" data-name="Tracé 1278" transform="translate(-1.306 -23.6)"/>
                    <path id="Tracé_1279" d="M47.976 80.038a2.338 2.338 0 1 1-2.338-2.338 2.262 2.262 0 0 1 2.338 2.338z" class="cls-5" data-name="Tracé 1279" transform="translate(3.58 -11.133)"/>
                    <path id="Tracé_1280" d="M51.5 44.921a6.073 6.073 0 0 0-4.184 2.707 5.371 5.371 0 0 0-4.184-2.707C40.553 44.552 36 45.413 36 50.95c0 7.629 11.32 13.535 11.32 13.535s11.32-5.906 11.32-13.535c0-5.537-4.429-6.521-7.14-6.029z" class="cls-11" data-name="Tracé 1280" transform="translate(1.898 -18.712)"/>
                </g>
                <g id="Groupe_123" data-name="Groupe 123" transform="translate(66.251 28.112)">
                    <g id="Groupe_114" data-name="Groupe 114" transform="translate(11.161 20.056)">
                        <path id="Tracé_1283" d="M126.744 119.379l-48.479-.123c-5.291 0-9.6-3.691-9.967-8.49l-5.291-61.522c-.492-5.291 4.184-9.844 9.967-9.844l58.569.123c5.783 0 10.459 4.553 9.967 9.844l-4.922 61.522c-.247 4.799-4.553 8.49-9.844 8.49z" class="cls-12" data-name="Tracé 1283" transform="translate(-62.971 -39.4)"/>
                        <path id="Tracé_1284" d="M121.99 112.367l-41.343-.123c-4.43 0-8.244-3.2-8.49-7.26L67.6 52.567c-.369-4.553 3.568-8.367 8.49-8.367l49.956.123c4.922 0 8.859 3.937 8.49 8.367l-4.184 52.417c-.241 4.06-3.932 7.26-8.362 7.26z" class="cls-13" data-name="Tracé 1284" transform="translate(-61.909 -38.294)"/>
                        <path id="Rectangle_25" d="M0 0h2.707v28.915H0z" class="cls-10" data-name="Rectangle 25" transform="translate(38.056 39.989)"/>
                        <path id="Tracé_1285" d="M113.93 63.411h-31.5a1.233 1.233 0 0 1-1.23-1.23V49.63a1.233 1.233 0 0 1 1.23-1.23h31.5a1.233 1.233 0 0 1 1.23 1.23v12.551a1.233 1.233 0 0 1-1.23 1.23z" class="cls-10" data-name="Tracé 1285" transform="translate(-58.77 -37.326)"/>
                        <path id="Tracé_1286" d="M111.546 61.2H83.984a.878.878 0 0 1-.984-.864v-9.475a.951.951 0 0 1 .984-.861h27.685a.878.878 0 0 1 .984.861v9.474a.994.994 0 0 1-1.107.865z" class="cls-3" data-name="Tracé 1286" transform="translate(-58.356 -36.957)"/>
                        <g id="Groupe_113" data-name="Groupe 113" transform="translate(36.211 14.15)">
                            <path id="Tracé_1287" d="M99.861 52.007h-1.969a.43.43 0 0 1-.246-.123l-.246-.615c0-.123.123-.369.246-.369h2.461c.123 0 .369.123.246.369l-.246.615a.43.43 0 0 1-.246.123z" data-name="Tracé 1287" transform="translate(-91.248 -50.9)"/>
                            <path id="Tracé_1288" d="M104.961 52.007h-1.969a.43.43 0 0 1-.246-.123l-.246-.615c0-.123.123-.369.246-.369h2.461c.123 0 .369.123.246.369l-.246.615c-.123 0-.123.123-.246.123z" data-name="Tracé 1288" transform="translate(-90.073 -50.9)"/>
                            <path id="Tracé_1289" d="M99.861 55.207h-1.969a.43.43 0 0 1-.246-.123l-.246-.615c0-.123.123-.369.246-.369h2.461c.123 0 .369.123.246.369l-.246.615a.43.43 0 0 1-.246.123z" data-name="Tracé 1289" transform="translate(-91.248 -50.163)"/>
                            <path id="Tracé_1290" d="M97.807 52.1v1.969a.43.43 0 0 1-.123.246l-.615.246c-.123 0-.369-.123-.369-.246v-2.463c0-.123.123-.369.369-.246l.615.246c.123 0 .123.123.123.248z" data-name="Tracé 1290" transform="translate(-91.409 -50.745)"/>
                            <path id="Tracé_1291" d="M103.007 52.1v1.969a.43.43 0 0 1-.123.246l-.615.246c-.123 0-.369-.123-.369-.246v-2.463c0-.123.123-.369.369-.246l.615.246a.43.43 0 0 1 .123.248z" data-name="Tracé 1291" transform="translate(-90.211 -50.745)"/>
                            <path id="Tracé_1292" d="M104.5 52.1v1.969a.43.43 0 0 0 .123.246l.615.246c.123 0 .369-.123.369-.246v-2.463c0-.123-.123-.369-.369-.246l-.615.246a.43.43 0 0 0-.123.248z" data-name="Tracé 1292" transform="translate(-89.612 -50.745)"/>
                            <path id="Tracé_1293" d="M103.007 55.4v1.969a.43.43 0 0 1-.123.246l-.615.246c-.123 0-.369-.123-.369-.246v-2.463c0-.123.123-.369.369-.246l.615.246a.43.43 0 0 1 .123.248z" data-name="Tracé 1293" transform="translate(-90.211 -49.985)"/>
                            <path id="Tracé_1294" d="M104.5 55.4v1.969a.43.43 0 0 0 .123.246l.615.246c.123 0 .369-.123.369-.246v-2.463c0-.123-.123-.369-.369-.246l-.615.246a.43.43 0 0 0-.123.248z" data-name="Tracé 1294" transform="translate(-89.612 -49.985)"/>
                            <path id="Tracé_1295" d="M99.6 55.4v1.969a.43.43 0 0 0 .123.246l.615.246c.123 0 .369-.123.369-.246v-2.463c0-.123-.123-.369-.369-.246l-.492.123c-.123.123-.246.246-.246.371z" data-name="Tracé 1295" transform="translate(-90.741 -49.985)"/>
                            <path id="Tracé_1296" d="M97.9 57.2h1.969a.43.43 0 0 1 .246.123l.246.615c0 .123-.123.369-.246.369h-2.463c-.123 0-.369-.123-.246-.369l.246-.615a.43.43 0 0 1 .248-.123z" data-name="Tracé 1296" transform="translate(-91.254 -49.448)"/>
                            <path id="Tracé_1297" d="M95.561 52.007h-1.969a.43.43 0 0 1-.246-.123l-.246-.615c0-.123.123-.369.246-.369h2.461c.123 0 .369.123.246.369l-.246.615a.43.43 0 0 1-.246.123z" data-name="Tracé 1297" transform="translate(-92.239 -50.9)"/>
                            <path id="Tracé_1298" d="M95.561 55.207h-1.969a.43.43 0 0 1-.246-.123l-.246-.615c0-.123.123-.369.246-.369h2.461c.123 0 .369.123.246.369l-.246.615a.43.43 0 0 1-.246.123z" data-name="Tracé 1298" transform="translate(-92.239 -50.163)"/>
                            <path id="Tracé_1299" d="M93.63 52.1v1.969a.43.43 0 0 1-.123.246l-.738.246c-.123 0-.369-.123-.369-.246v-2.463c0-.123.123-.369.369-.246l.615.246a.265.265 0 0 1 .246.248z" data-name="Tracé 1299" transform="translate(-92.4 -50.745)"/>
                            <path id="Tracé_1300" d="M95.3 55.4v1.969a.43.43 0 0 0 .123.246l.615.246c.123 0 .369-.123.369-.246v-2.463c0-.123-.123-.369-.369-.246l-.492.123c-.123.123-.246.246-.246.371z" data-name="Tracé 1300" transform="translate(-91.732 -49.985)"/>
                            <path id="Tracé_1301" d="M93.6 57.2h1.969a.43.43 0 0 1 .246.123l.246.615c0 .123-.123.369-.246.369h-2.463c-.123 0-.369-.123-.246-.369l.246-.615a.43.43 0 0 1 .248-.123z" data-name="Tracé 1301" transform="translate(-92.245 -49.448)"/>
                            <path id="Tracé_1302" d="M102.9 57.2h1.969a.43.43 0 0 1 .246.123l.246.615c0 .123-.123.369-.246.369h-2.461c-.123 0-.369-.123-.246-.369l.246-.615c.121 0 .121-.123.246-.123z" data-name="Tracé 1302" transform="translate(-90.102 -49.448)"/>
                            <path id="Rectangle_26" d="M0 0h.738v.738H0z" data-name="Rectangle 26" transform="translate(10.459 8.244)"/>
                        </g>
                    </g>
                    <g id="Groupe_121" data-name="Groupe 121" transform="translate(0 54.632)">
                        <g id="Groupe_115" data-name="Groupe 115">
                            <path id="Tracé_1304" d="M80.847 67.5H54.761a.841.841 0 0 0-.861.861v47.126a.841.841 0 0 0 .861.861h26.086a.841.841 0 0 0 .861-.861v-47a.951.951 0 0 0-.861-.987z" class="cls-14" data-name="Tracé 1304" transform="translate(-53.9 -67.5)"/>
                            <path id="Rectangle_27" d="M0 0h22.64v37.405H0z" class="cls-4" data-name="Rectangle 27" transform="translate(2.584 5.168)"/>
                            <path id="Tracé_1305" d="M67.169 69.5a.369.369 0 1 0 .369.369.326.326 0 0 0-.369-.369z" class="cls-15" data-name="Tracé 1305" transform="translate(-50.927 -67.039)"/>
                            <path id="Tracé_1306" d="M66.415 104h-1.969a.265.265 0 0 0-.246.246v.369a.265.265 0 0 0 .246.246h1.969a.265.265 0 0 0 .246-.246v-.369a.265.265 0 0 0-.246-.246z" class="cls-15" data-name="Tracé 1306" transform="translate(-51.526 -59.089)"/>
                            <path id="Tracé_1307" d="M66.545 69.5h-3.076a.326.326 0 0 0-.369.369.393.393 0 0 0 .369.369h3.076a.369.369 0 1 0 0-.738z" class="cls-15" data-name="Tracé 1307" transform="translate(-51.78 -67.039)"/>
                        </g>
                        <g id="Groupe_117" data-name="Groupe 117" transform="translate(8.49 8.859)">
                            <path id="Tracé_1308" d="M67.715 75.807h-1.723a.43.43 0 0 1-.246-.123l-.246-.615c0-.123.123-.369.246-.369h2.092c.123 0 .246.123.246.369l-.246.615c0 .123 0 .123-.123.123z" data-name="Tracé 1308" transform="translate(-59.717 -74.7)"/>
                            <path id="Tracé_1309" d="M72.092 75.807h-1.723a.43.43 0 0 1-.246-.123L70 75.069c0-.123.123-.369.246-.369h2.092c.123 0 .246.123.246.369l-.246.615c0 .123-.123.123-.246.123z" data-name="Tracé 1309" transform="translate(-58.68 -74.7)"/>
                            <path id="Tracé_1310" d="M67.715 78.607h-1.723a.43.43 0 0 1-.246-.123l-.246-.615c0-.123.123-.369.246-.369h2.092c.123 0 .246.123.246.369l-.246.615c0 .123 0 .123-.123.123z" data-name="Tracé 1310" transform="translate(-59.717 -74.055)"/>
                            <path id="Tracé_1311" d="M65.891 75.869v1.723a.43.43 0 0 1-.123.246l-.615.246c-.123 0-.369-.123-.246-.246v-2.092c0-.123.123-.246.369-.246l.615.246v.123z" data-name="Tracé 1311" transform="translate(-59.861 -74.516)"/>
                            <path id="Tracé_1312" d="M70.407 75.869v1.723a.43.43 0 0 1-.123.246l-.615.246c-.123 0-.369-.123-.369-.246v-2.092c0-.123.123-.246.369-.246l.615.246c.123-.123.123 0 .123.123z" data-name="Tracé 1312" transform="translate(-58.841 -74.516)"/>
                            <path id="Tracé_1313" d="M71.81 75.869v1.723a.43.43 0 0 0 .123.246l.615.246c.123 0 .369-.123.369-.246v-2.092c0-.123-.123-.246-.369-.246l-.615.246c-.123-.123-.246 0-.123.123z" data-name="Tracé 1313" transform="translate(-58.275 -74.516)"/>
                            <path id="Tracé_1314" d="M70.407 78.669v1.723a.43.43 0 0 1-.123.246l-.615.246c-.123 0-.369-.123-.369-.246v-2.092c0-.123.123-.246.369-.246l.615.246a.12.12 0 0 1 .123.123z" data-name="Tracé 1314" transform="translate(-58.841 -73.87)"/>
                            <path id="Tracé_1315" d="M71.7 78.669v1.723a.43.43 0 0 0 .123.246l.615.246c.123 0 .369-.123.369-.246v-2.092c0-.123-.123-.246-.369-.246l-.615.246z" data-name="Tracé 1315" transform="translate(-58.288 -73.87)"/>
                            <path id="Tracé_1316" d="M67.5 78.669v1.723a.43.43 0 0 0 .123.246l.615.246c.123 0 .369-.123.369-.246v-2.092c0-.123-.123-.246-.369-.246l-.615.246a.121.121 0 0 0-.123.123z" data-name="Tracé 1316" transform="translate(-59.256 -73.87)"/>
                            <path id="Tracé_1317" d="M65.969 80.4h1.723a.43.43 0 0 1 .246.123l.246.615c0 .123-.123.369-.246.369h-2.092c-.123 0-.246-.123-.246-.369l.246-.615c-.123-.123 0-.123.123-.123z" data-name="Tracé 1317" transform="translate(-59.694 -73.386)"/>
                            <path id="Tracé_1318" d="M63.892 75.807h-1.723a.43.43 0 0 1-.246-.123l-.123-.615c0-.123.123-.369.246-.369h2.092c.123 0 .246.123.246.369l-.246.615c0 .123-.123.123-.246.123z" data-name="Tracé 1318" transform="translate(-60.57 -74.7)"/>
                            <path id="Tracé_1319" d="M63.915 78.607h-1.723a.43.43 0 0 1-.246-.123l-.246-.615c0-.123.123-.369.246-.369h2.092c.123 0 .246.123.246.369l-.246.615c.123.123 0 .123-.123.123z" data-name="Tracé 1319" transform="translate(-60.593 -74.055)"/>
                            <path id="Tracé_1320" d="M62.207 75.869v1.723a.43.43 0 0 1-.123.246l-.615.246c-.123 0-.369-.123-.369-.246v-2.092c0-.123.123-.246.369-.246l.615.246c0-.123.123 0 .123.123z" data-name="Tracé 1320" transform="translate(-60.731 -74.516)"/>
                            <path id="Tracé_1321" d="M63.7 78.669v1.723a.43.43 0 0 0 .123.246l.615.246c.123 0 .369-.123.369-.246v-2.092c0-.123-.123-.246-.369-.246l-.615.246z" data-name="Tracé 1321" transform="translate(-60.132 -73.87)"/>
                            <path id="Tracé_1322" d="M62.169 80.4h1.723a.43.43 0 0 1 .246.123l.246.615c0 .123-.123.369-.246.369h-2.092c-.123 0-.246-.123-.246-.369l.246-.615c-.123-.123 0-.123.123-.123z" data-name="Tracé 1322" transform="translate(-60.57 -73.386)"/>
                            <path id="Tracé_1323" d="M70.369 80.4h1.723a.43.43 0 0 1 .246.123l.246.615c0 .123-.123.369-.246.369h-2.092c-.123 0-.246-.123-.246-.369l.246-.615c-.123-.123 0-.123.123-.123z" data-name="Tracé 1323" transform="translate(-58.68 -73.386)"/>
                            <path id="Rectangle_28" d="M0 0h.615v.615H0z" data-name="Rectangle 28" transform="translate(9.597 7.383)"/>
                            <g id="Groupe_116" data-name="Groupe 116" transform="translate(0 10.09)">
                                <path id="Tracé_1324" d="M63.015 83.761h-2.092a.12.12 0 0 1-.123-.123l.246-.615.123-.123h1.477a.121.121 0 0 1 .123.123l.246.615c.123 0 0 .123 0 .123z" data-name="Tracé 1324" transform="translate(-60.8 -82.9)"/>
                                <path id="Tracé_1325" d="M65.015 83h-2.092a.121.121 0 0 0-.123.123l.246.615.123.123h1.477a.121.121 0 0 0 .123-.123l.246-.615c.123-.123 0-.123 0-.123z" data-name="Tracé 1325" transform="translate(-60.339 -82.877)"/>
                                <path id="Tracé_1326" d="M66.915 83.761h-2.092a.121.121 0 0 1-.123-.123l.369-.615.123-.123h1.477a.121.121 0 0 1 .123.123l.246.615a.12.12 0 0 1-.123.123z" data-name="Tracé 1326" transform="translate(-59.901 -82.9)"/>
                                <path id="Tracé_1327" d="M68.915 83h-2.092a.121.121 0 0 0-.123.123l.246.615.123.123h1.477a.121.121 0 0 0 .123-.123l.246-.615c.123-.123.123-.123 0-.123z" data-name="Tracé 1327" transform="translate(-59.44 -82.877)"/>
                                <path id="Tracé_1328" d="M70.915 83.761h-2.092a.12.12 0 0 1-.123-.123l.246-.615.123-.123h1.477a.121.121 0 0 1 .123.123l.246.615c.123 0 .123.123 0 .123z" data-name="Tracé 1328" transform="translate(-58.98 -82.9)"/>
                                <path id="Tracé_1329" d="M72.915 83h-2.092a.121.121 0 0 0-.123.123l.246.615.123.123h1.477a.121.121 0 0 0 .123-.123l.246-.615c.123-.123.123-.123 0-.123z" data-name="Tracé 1329" transform="translate(-58.519 -82.877)"/>
                            </g>
                        </g>
                        <g id="Groupe_120" data-name="Groupe 120" transform="translate(8.49 23.748)">
                            <path id="Tracé_1330" d="M72.092 87.907h-1.723a.43.43 0 0 1-.246-.123L70 87.169c0-.123.123-.369.246-.369h2.092c.123 0 .246.123.246.369l-.246.615c0 .123-.123.123-.246.123z" data-name="Tracé 1330" transform="translate(-58.68 -86.8)"/>
                            <path id="Tracé_1331" d="M70.407 87.969v1.723a.43.43 0 0 1-.123.246l-.615.246c-.123 0-.369-.123-.369-.246v-2.092c0-.123.123-.246.369-.246l.615.246c.123 0 .123 0 .123.123z" data-name="Tracé 1331" transform="translate(-58.841 -86.616)"/>
                            <path id="Tracé_1332" d="M71.81 87.969v1.723a.43.43 0 0 0 .123.246l.615.246c.123 0 .369-.123.369-.246v-2.092c0-.123-.123-.246-.369-.246l-.615.246c-.123 0-.246 0-.123.123z" data-name="Tracé 1332" transform="translate(-58.275 -86.616)"/>
                            <path id="Tracé_1333" d="M70.407 90.869v1.723a.43.43 0 0 1-.123.246l-.615.246c-.123 0-.369-.123-.369-.246v-2.092c0-.123.123-.246.369-.246l.615.246c.123-.123.123 0 .123.123z" data-name="Tracé 1333" transform="translate(-58.841 -85.947)"/>
                            <path id="Tracé_1334" d="M71.7 90.869v1.723a.43.43 0 0 0 .123.246l.615.246c.123 0 .369-.123.369-.246v-2.092c0-.123-.123-.246-.369-.246l-.615.246c0-.123-.123 0-.123.123z" data-name="Tracé 1334" transform="translate(-58.288 -85.947)"/>
                            <path id="Tracé_1335" d="M70.369 92.5h1.723a.43.43 0 0 1 .246.123l.246.615c0 .123-.123.369-.246.369h-2.092c-.123 0-.246-.123-.246-.369l.246-.615c-.123-.123 0-.123.123-.123z" data-name="Tracé 1335" transform="translate(-58.68 -85.486)"/>
                            <path id="Rectangle_29" d="M0 0h.615v.615H0z" data-name="Rectangle 29" transform="translate(9.597 7.383)"/>
                            <g id="Groupe_118" data-name="Groupe 118" transform="translate(0 10.459)">
                                <path id="Tracé_1336" d="M63.015 96.161h-2.092a.121.121 0 0 1-.123-.123l.246-.615.123-.123h1.477a.121.121 0 0 1 .123.123l.246.615c.123 0 0 .123 0 .123z" data-name="Tracé 1336" transform="translate(-60.8 -95.3)"/>
                                <path id="Tracé_1337" d="M65.015 95.3h-2.092a.121.121 0 0 0-.123.123l.246.615.123.123h1.477a.121.121 0 0 0 .123-.123l.246-.615c.123 0 0-.123 0-.123z" data-name="Tracé 1337" transform="translate(-60.339 -95.3)"/>
                                <path id="Tracé_1338" d="M66.915 96.161h-2.092a.121.121 0 0 1-.123-.123l.246-.615.123-.123h1.477a.121.121 0 0 1 .123.123l.246.615c.123 0 .123.123 0 .123z" data-name="Tracé 1338" transform="translate(-59.901 -95.3)"/>
                                <path id="Tracé_1339" d="M68.915 95.3h-2.092a.121.121 0 0 0-.123.123l.246.615.123.123h1.477a.121.121 0 0 0 .123-.123l.246-.615c.123 0 .123-.123 0-.123z" data-name="Tracé 1339" transform="translate(-59.44 -95.3)"/>
                                <path id="Tracé_1340" d="M70.915 96.161h-2.092a.121.121 0 0 1-.123-.123l.246-.615.123-.123h1.477a.121.121 0 0 1 .123.123l.246.615c.123 0 .123.123 0 .123z" data-name="Tracé 1340" transform="translate(-58.98 -95.3)"/>
                                <path id="Tracé_1341" d="M72.915 95.3h-2.092a.121.121 0 0 0-.123.123l.246.615.123.123h1.477a.121.121 0 0 0 .123-.123l.246-.615c.123 0 .123-.123 0-.123z" data-name="Tracé 1341" transform="translate(-58.519 -95.3)"/>
                            </g>
                            <g id="Groupe_119" data-name="Groupe 119" transform="translate(2.953 .198)">
                                <path id="Tracé_1342" d="M67.692 88.061h-1.723a.43.43 0 0 1-.246-.123l-.123-.492c0-.123 0-.246.246-.246h2.092a.265.265 0 0 1 .246.246l-.123.492c-.123 0-.246.123-.369.123z" data-name="Tracé 1342" transform="translate(-62.647 -86.906)"/>
                                <path id="Tracé_1343" d="M67.4 88.192v1.723a.43.43 0 0 0 .123.246l.492.123c.123 0 .246 0 .246-.246v-2.092a.265.265 0 0 0-.246-.246l-.492.123a.452.452 0 0 0-.123.369z" data-name="Tracé 1343" transform="translate(-62.232 -86.79)"/>
                                <path id="Tracé_1344" d="M66.061 90.892v1.723a.43.43 0 0 1-.123.246l-.492.123c-.123 0-.246 0-.246-.246v-2.092a.265.265 0 0 1 .246-.246l.492.123c0 .246.123.246.123.369z" data-name="Tracé 1344" transform="translate(-62.739 -86.168)"/>
                                <path id="Tracé_1345" d="M65.992 92.5h1.723a.43.43 0 0 1 .246.123l.123.492c0 .123 0 .246-.246.246h-2.092a.265.265 0 0 1-.246-.246l.123-.492a.539.539 0 0 0 .369-.123z" data-name="Tracé 1345" transform="translate(-62.67 -85.684)"/>
                                <path id="Tracé_1346" d="M67.523 89.8h-1.477c-.123 0-.123 0-.123.123l-.123.246v.123l.123.246.123.123h1.477c.123 0 .123 0 .123-.123l.123-.246v-.123l-.123-.246c0-.123 0-.123-.123-.123z" data-name="Tracé 1346" transform="translate(-62.601 -86.306)"/>
                                <path id="Tracé_1347" d="M63.2 87.624v2.338a.43.43 0 0 0 .123.246l.615.246c.123.123.369-.123.369-.246v-2.953c0-.246-.123-.369-.369-.246l-.615.246c0 .123-.123.245-.123.369z" data-name="Tracé 1347" transform="translate(-63.2 -86.961)"/>
                                <path id="Tracé_1348" d="M63.2 90.9v2.461a.43.43 0 0 0 .123.246l.615.246c.123.123.369-.123.369-.246v-2.952c0-.246-.123-.369-.369-.246l-.615.246c-.123 0-.123.123-.123.245z" data-name="Tracé 1348" transform="translate(-63.2 -86.177)"/>
                            </g>
                        </g>
                    </g>
                    <g id="Groupe_122" data-name="Groupe 122" transform="translate(13.658)">
                        <path id="Tracé_1349" d="M65 77.732h1.846V42.049a17.067 17.067 0 0 1 17.1-17.1h.369a17.067 17.067 0 0 1 17.1 17.1v1.107h1.846v-1.107A18.957 18.957 0 0 0 84.318 23.1h-.369A18.957 18.957 0 0 0 65 42.049z" class="cls-14" data-name="Tracé 1349" transform="translate(-65 -23.1)"/>
                    </g>
                </g>
                <g id="Groupe_131" data-name="Groupe 131" transform="translate(150.536 31.804)">
                    <g id="Groupe_125" data-name="Groupe 125">
                        <path id="Tracé_1351" d="M201.912 138.7H161.8l8.367-33.1h23.5z" class="cls-16" data-name="Tracé 1351" transform="translate(-113.321 -7.78)"/>
                        <path id="Tracé_1352" d="M251.966 128.719h-122.06a7.457 7.457 0 0 1-7.506-7.506V33.606a7.457 7.457 0 0 1 7.506-7.506h122.06a7.457 7.457 0 0 1 7.506 7.506v87.484a7.411 7.411 0 0 1-7.506 7.629z" class="cls-17" data-name="Tracé 1352" transform="translate(-122.4 -26.1)"/>
                        <path id="Rectangle_30" d="M0 0h112.463v77.764H0z" class="cls-10" data-name="Rectangle 30" transform="translate(12.304 9.228)"/>
                        <path id="Tracé_1353" d="M211.077 139.074l-53.647-.369a6.066 6.066 0 0 1-6.029-6.152v-.123a6.066 6.066 0 0 1 6.152-6.029l53.647.369a6.066 6.066 0 0 1 6.029 6.152v.123a6.228 6.228 0 0 1-6.152 6.029z" class="cls-17" data-name="Tracé 1353" transform="translate(-115.717 -2.987)"/>
                        <g id="Groupe_124" data-name="Groupe 124" transform="translate(110.002 94.867)">
                            <path id="Tracé_1354" d="M215.491 105.046a1.846 1.846 0 1 1-1.846-1.846 1.812 1.812 0 0 1 1.846 1.846z" class="cls-16" data-name="Tracé 1354" transform="translate(-211.8 -103.2)"/>
                            <path id="Tracé_1355" d="M219.591 105.046a1.846 1.846 0 0 1-3.691 0 1.812 1.812 0 0 1 1.846-1.846 1.892 1.892 0 0 1 1.845 1.846z" class="cls-16" data-name="Tracé 1355" transform="translate(-210.855 -103.2)"/>
                            <path id="Tracé_1356" d="M223.591 105.046a1.812 1.812 0 0 1-1.846 1.846 1.846 1.846 0 1 1 0-3.691 1.812 1.812 0 0 1 1.846 1.845z" class="cls-16" data-name="Tracé 1356" transform="translate(-209.933 -103.2)"/>
                        </g>
                    </g>
                    <g id="Groupe_127" data-name="Groupe 127" transform="translate(68.659 20.302)">
                        <path id="Tracé_1357" d="M222.742 42.6h-25.47a5.662 5.662 0 0 0-5.414 5.906v29.777a25.879 25.879 0 0 1-13.658.492c2.83 3.691 8.49 4.8 13.658 4.8v7.014a5.741 5.741 0 0 0 5.414 5.906h25.47a5.662 5.662 0 0 0 5.414-5.906v-42.2a5.628 5.628 0 0 0-5.414-5.789z" class="cls-10" data-name="Tracé 1357" transform="translate(-178.2 -42.6)"/>
                        <g id="Groupe_126" data-name="Groupe 126" transform="translate(17.595 14.396)">
                            <path id="Rectangle_31" d="M0 0h28.3v2.584H0z" class="cls-18" data-name="Rectangle 31"/>
                            <path id="Rectangle_32" d="M0 0h28.3v2.584H0z" class="cls-18" data-name="Rectangle 32" transform="translate(0 4.799)"/>
                            <path id="Rectangle_33" d="M0 0h28.3v2.584H0z" class="cls-18" data-name="Rectangle 33" transform="translate(0 9.597)"/>
                            <path id="Rectangle_34" d="M0 0h28.3v2.584H0z" class="cls-18" data-name="Rectangle 34" transform="translate(0 14.396)"/>
                            <path id="Rectangle_35" d="M0 0h28.3v2.584H0z" class="cls-18" data-name="Rectangle 35" transform="translate(0 19.195)"/>
                            <path id="Rectangle_36" d="M0 0h28.3v2.584H0z" class="cls-18" data-name="Rectangle 36" transform="translate(0 24.24)"/>
                            <path id="Rectangle_37" d="M0 0h28.3v2.584H0z" class="cls-18" data-name="Rectangle 37" transform="translate(0 29.038)"/>
                        </g>
                    </g>
                    <g id="Groupe_130" data-name="Groupe 130" transform="translate(19.564 14.888)">
                        <path id="Tracé_1358" d="M169.433 74.406a17.435 17.435 0 0 1-.123-5.906h-10.951a20.6 20.6 0 0 1-.123 5.66 1.216 1.216 0 0 1-.861.861c-1.107.246-3.691.984-7.875 4.676l13.9 19.933h1.107l16.734-20.794c-3.568-2.092-8.982-3.322-10.828-3.691-.613-.001-.98-.37-.98-.739z" class="cls-19" data-name="Tracé 1358" transform="translate(-135.719 -31.218)"/>
                        <path id="Tracé_1359" d="M171.056 40.677a29.011 29.011 0 0 0-7.506-1.477 28.014 28.014 0 0 0-7.506 1.477c-6.644 2.83-6.644 8.49-6.644 17.226h28.3c.123-8.736 0-14.396-6.644-17.226z" class="cls-8" data-name="Tracé 1359" transform="translate(-135.742 -37.97)"/>
                        <path id="Tracé_1360" d="M167.9 68.5h-10.952a20.061 20.061 0 0 1-.246 5.906.922.922 0 0 1-.984.615 3.768 3.768 0 0 0-.246 3.691c4.553-1.846 8.244-5.537 12.3-9.105a7.6 7.6 0 0 0 .128-1.107z" class="cls-20" data-name="Tracé 1360" transform="translate(-134.431 -31.218)"/>
                        <path id="Tracé_1361" d="M178.4 56.151c-.369-1.107-1.107-.492-1.723.246.123-8.49-4.307-12.8-4.307-12.8h-16.98s-4.553 4.307-4.43 12.8c-.615-.738-1.23-1.23-1.723-.123-.738 1.969.984 4.676.738 7.383-.246 1.846 1.23 1.723 2.215 1.107a35.152 35.152 0 0 0 1.723 5.045c1.723 4.06 6.767 7.875 9.967 7.875 3.076 0 8.121-3.814 9.967-7.875a24.521 24.521 0 0 0 1.723-5.045c.984.492 2.461.738 2.215-1.107-.496-2.831 1.349-5.538.615-7.506z" class="cls-19" data-name="Tracé 1361" transform="translate(-135.823 -36.956)"/>
                        <path id="Tracé_1362" d="M191.332 81.675c-2.092-3.937-18.58-7.875-18.58-7.875s-2.584 3.691-6.521 3.691-6.521-3.691-6.521-3.691-16.365 3.937-18.58 7.875c-1.107 2.092-2.215 12.674-2.83 20.548h55.862c-.615-7.875-1.722-18.456-2.83-20.548z" class="cls-3" data-name="Tracé 1362" transform="translate(-138.3 -29.996)"/>
                        <path id="Tracé_1363" d="M153.1 44.243s9.474 17.718 24.363-.738c-.123.123-13.163-10.213-24.363.738z" class="cls-21" data-name="Tracé 1363" transform="translate(-134.889 -37.968)"/>
                        <path id="Tracé_1364" d="M153.522 63.825c-.615-5.291-1.107-17.472 6.767-20.918l-2.46-1.107s-7.014 1.477-7.629 12.3l1.846 11.443a1.627 1.627 0 0 0 1.476-1.718z" class="cls-8" data-name="Tracé 1364" transform="translate(-135.558 -37.37)"/>
                        <path id="Tracé_1365" d="M171.821 65.448L173.79 54c-.615-10.828-7.629-12.3-7.629-12.3l-2.461 1.107c7.875 3.445 7.383 15.627 6.767 20.918a1.48 1.48 0 0 0 1.354 1.723z" class="cls-8" data-name="Tracé 1365" transform="translate(-132.447 -37.393)"/>
                        <path id="Rectangle_38" d="M0 0h29.285v17.472H0z" class="cls-3" data-name="Rectangle 38" transform="translate(13.412)"/>
                        <g id="Groupe_128" data-name="Groupe 128" transform="translate(37.775 62.999)">
                            <path id="Tracé_1366" d="M175.644 92.722a3.322 3.322 0 1 1-3.322-3.322 3.308 3.308 0 0 1 3.322 3.322z" class="cls-22" data-name="Tracé 1366" transform="translate(-169 -89.4)"/>
                            <path id="Tracé_1367" d="M174.476 91.923h-1.846V90.2h-1.107v1.723H169.8v1.107h1.723v1.846h1.107V93.03h1.846z" class="cls-10" data-name="Tracé 1367" transform="translate(-168.816 -89.216)"/>
                        </g>
                        <path id="Tracé_1368" d="M163 95.218c.123-2.461-.369-6.521-2.584-8.367a6.73 6.73 0 0 0-8.121-.123c-2.461-7.629 1.723-10.951 2.584-12.427a7.646 7.646 0 0 0-1.23.369s-5.168 3.691-2.092 12.674c-2.461 2.338-3.2 5.168-1.6 8.121 1.353 2.584 4.922 3.937 7.383 4.43a1.644 1.644 0 1 0 1.353-2.092 1.774 1.774 0 0 0-1.353 1.107c-2.215-.369-5.291-1.6-6.521-3.691-1.23-2.215-.738-5.045 1.477-7.137.123-.123.738-.492.861-.615a5.809 5.809 0 0 1 6.89.246c1.723 1.6 2.215 5.168 2.092 7.383a1.442 1.442 0 0 0-1.353 1.107 1.635 1.635 0 1 0 3.076 1.107 2.118 2.118 0 0 0-.862-2.092z" class="cls-8" data-name="Tracé 1368" transform="translate(-135.809 -29.881)"/>
                        <g id="Groupe_129" data-name="Groupe 129" transform="translate(30.346 45.034)">
                            <path id="Tracé_1369" d="M170.983 74.8c1.723 4.184 2.707 9.351 1.846 11.443-1.477 3.445-5.783 5.168-7.629 5.537l.369.738c2.092-.492 6.521-1.969 8-5.66.861-2.092.123-7.383-1.6-11.689.245 0-.369-.369-.986-.369z" class="cls-8" data-name="Tracé 1369" transform="translate(-162.447 -74.8)"/>
                            <path id="Tracé_1370" d="M167.807 91.369a2.662 2.662 0 1 1-.738-3.691 2.734 2.734 0 0 1 .738 3.691z" class="cls-8" data-name="Tracé 1370" transform="translate(-162.962 -71.928)"/>
                            <path id="Tracé_1371" d="M166.755 90.563a1.6 1.6 0 1 1-.492-2.215 1.6 1.6 0 0 1 .492 2.215z" class="cls-23" data-name="Tracé 1371" transform="translate(-162.771 -71.737)"/>
                        </g>
                    </g>
                </g>
            </g>
        </g>
    </g>
</svg>
